PathFileType	4	(X/Y/Z)	OpenSim_Sub07_EMGStiffKnee_Magnet.trc
DataRate	CameraRate	NumFrames	NumMarkers	Units	OrigDataRate	OrigDataStartFrame	OrigNumFrames
100	100	40	8	m	100	2771	7388
Frame#	Time	torso_imu_offset_imu	pelvis_imu_offset_imu	tibia_r_imu_offset_imu	femur_r_imu_offset_imu	tibia_l_imu_offset_imu	femur_l_imu_offset_imu	toes_r_imu_offset_imu	toes_l_imu_offset_imu
				X1	Y1	Z1	X2	Y2	Z2	X3	Y3	Z3	X4	Y4	Z4	X5	Y5	Z5	X6	Y6	Z6	X7	Y7	Z7	X8		Y8	Z8	

2771	27.70000000	0.92882349	0.21477751	0.09440854	-0.67275176	0.20350721	-0.67662566	-0.61139858	-0.55434058	-0.01636524	-0.86529187	-0.05347961	-0.10386539	-0.49289362	0.65768381	0.23213042	-0.57729740	0.32942297	0.54480125	-0.60717174	-0.31621339	-0.39969880	-0.76755219	-0.22385795	-0.30264237
2772	27.71000000	0.92843403	0.21446458	0.09173500	-0.67088576	0.20028653	-0.67479889	-0.63070010	-0.53480213	-0.02624100	-0.86424826	-0.06849154	-0.10514142	-0.48704254	0.66568119	0.22585563	-0.57295114	0.33218382	0.54405482	-0.59684361	-0.31567713	-0.41662466	-0.76866686	-0.22544953	-0.30103558
2773	27.72000000	0.92498914	0.21496417	0.10069453	-0.67275106	0.20188998	-0.67519255	-0.63904009	-0.52450766	-0.03734548	-0.86844032	-0.07715229	-0.10274965	-0.48533999	0.67246417	0.22337244	-0.56651313	0.33611986	0.54233795	-0.58676585	-0.30578206	-0.43509362	-0.76708713	-0.22670997	-0.30823588
2774	27.73000000	0.92796308	0.21301306	0.10208682	-0.67612206	0.19883525	-0.67206184	-0.64439873	-0.50838782	-0.04048680	-0.86475019	-0.08617899	-0.09930651	-0.47987541	0.67660318	0.22643069	-0.56695565	0.33790077	0.54636867	-0.57726578	-0.29806961	-0.45915342	-0.77193406	-0.21883091	-0.31129050
2775	27.74000000	0.92840165	0.20999022	0.09506187	-0.67052819	0.19796553	-0.67339899	-0.64956104	-0.49832002	-0.03783807	-0.86314075	-0.09042544	-0.10315380	-0.47631125	0.68216187	0.22203423	-0.56047280	0.34063855	0.54516226	-0.57425458	-0.28797238	-0.47041235	-0.77333634	-0.21118795	-0.30856912
2776	27.75000000	0.93248528	0.21061666	0.09571257	-0.67155137	0.19757188	-0.66703002	-0.65253717	-0.49718796	-0.03570631	-0.85990647	-0.08738690	-0.10412409	-0.47143285	0.69193012	0.21737698	-0.56046919	0.34683842	0.54704695	-0.57609887	-0.27651577	-0.47721395	-0.77369813	-0.21606270	-0.30483494
2777	27.76000000	0.92663943	0.21023715	0.09281109	-0.67545274	0.19386254	-0.66942880	-0.66083909	-0.49308373	-0.03441256	-0.85653374	-0.09111340	-0.10901156	-0.46160264	0.69449593	0.21666148	-0.55882042	0.35038123	0.54588635	-0.58124044	-0.27114780	-0.47250809	-0.78131507	-0.21186201	-0.29821998
2778	27.77000000	0.92726819	0.21112874	0.09032292	-0.67663948	0.19166517	-0.66998329	-0.66108819	-0.49590425	-0.02873215	-0.85904550	-0.09388337	-0.10806241	-0.45183640	0.70269313	0.21331710	-0.55467341	0.35268669	0.54448738	-0.59136896	-0.27582122	-0.44673965	-0.78990534	-0.21165725	-0.29495166
2779	27.78000000	0.92950910	0.20753569	0.09011180	-0.67579435	0.19013279	-0.66625339	-0.65186394	-0.49971741	-0.01580017	-0.86160282	-0.09420847	-0.10289779	-0.44421199	0.71071320	0.20764436	-0.55389919	0.35774679	0.54751703	-0.61312169	-0.27679674	-0.41938262	-0.79898265	-0.21032987	-0.29233478
2780	27.79000000	0.93057017	0.20549057	0.08650445	-0.67888857	0.19250321	-0.66804764	-0.64618095	-0.51063224	-0.00059959	-0.86255970	-0.09520628	-0.09209196	-0.43629462	0.71960006	0.20280654	-0.55388167	0.35664688	0.54439003	-0.62051855	-0.27621266	-0.39961603	-0.80319077	-0.20906929	-0.28055139
2781	27.80000000	0.92751115	0.20681017	0.07979216	-0.67758216	0.19270014	-0.66879012	-0.63807862	-0.52258200	0.01299986	-0.86212980	-0.09396271	-0.07627535	-0.43642264	0.73106837	0.19947111	-0.55431974	0.36343892	0.54209437	-0.62678404	-0.28664041	-0.38152150	-0.81210151	-0.20469579	-0.26861797
2782	27.81000000	0.93163153	0.20555916	0.08161043	-0.67247368	0.18873051	-0.66674897	-0.63143424	-0.52747002	0.02134347	-0.86004759	-0.10160420	-0.06200048	-0.41714840	0.73271620	0.19764842	-0.55317642	0.36591651	0.54090934	-0.64016972	-0.28838871	-0.35178510	-0.81883989	-0.20458320	-0.25772481
2783	27.82000000	0.92974566	0.20678680	0.07296771	-0.67754738	0.19369398	-0.66472870	-0.63067495	-0.53080145	0.02406821	-0.86497226	-0.10749247	-0.05098539	-0.40528719	0.73629555	0.18916077	-0.55807128	0.36195948	0.54593493	-0.64866186	-0.28815034	-0.32946476	-0.82519756	-0.20776823	-0.23692719
2784	27.83000000	0.93007128	0.20572463	0.06520616	-0.67465542	0.18574678	-0.65901518	-0.62534112	-0.53675203	0.03063410	-0.86362413	-0.11345345	-0.04899219	-0.39543365	0.74694176	0.18830469	-0.56095150	0.36610575	0.54473685	-0.65735112	-0.29594798	-0.30753334	-0.83120460	-0.20762716	-0.21756814
2785	27.84000000	0.93258162	0.21214561	0.06633796	-0.67617562	0.18513968	-0.66464499	-0.61831906	-0.54128835	0.04987728	-0.86092257	-0.11588391	-0.04932118	-0.38185750	0.75452207	0.18179555	-0.55768310	0.36018649	0.53647715	-0.64813925	-0.30329562	-0.30029922	-0.83710895	-0.20277939	-0.18966789
2786	27.85000000	0.93098655	0.21187506	0.06210211	-0.67649922	0.18989575	-0.66014109	-0.61204499	-0.54817655	0.06542222	-0.85982040	-0.11498830	-0.04806720	-0.36731345	0.75491517	0.17524095	-0.56461298	0.35816573	0.53095801	-0.63586360	-0.30599701	-0.30940560	-0.85127565	-0.19883272	-0.15653312
2787	27.86000000	0.93282176	0.20921964	0.06428720	-0.67777436	0.19074914	-0.65680600	-0.60145031	-0.55370060	0.08515417	-0.85569336	-0.11742750	-0.04736029	-0.35371912	0.76815724	0.17018901	-0.57148404	0.36048776	0.52238391	-0.63981975	-0.30948472	-0.30494750	-0.85571170	-0.19456395	-0.12448528
2788	27.87000000	0.92940780	0.20889608	0.06475279	-0.68659641	0.18827849	-0.65772179	-0.59354260	-0.56305167	0.09171492	-0.85967198	-0.12415682	-0.04918464	-0.34244701	0.77341762	0.16151167	-0.58042603	0.35385298	0.52113582	-0.63767882	-0.30961726	-0.30848855	-0.85700004	-0.19054480	-0.08405109
2789	27.88000000	0.93458438	0.21078933	0.06239718	-0.68310768	0.18296691	-0.65737036	-0.58935723	-0.56725438	0.09116813	-0.86110175	-0.13070964	-0.04766841	-0.32267930	0.78601333	0.15676771	-0.58425425	0.34808212	0.51857850	-0.63286443	-0.31461823	-0.30997079	-0.86173542	-0.17995905	-0.04172325
2790	27.89000000	0.93928766	0.21002545	0.05884870	-0.68455304	0.17973006	-0.66123578	-0.58557440	-0.56581041	0.09870773	-0.86041016	-0.13492891	-0.04546900	-0.30555276	0.79360888	0.15227513	-0.59282086	0.34431725	0.50670247	-0.62802639	-0.31459964	-0.31241218	-0.86410829	-0.17273145	-0.00441589
2791	27.90000000	0.93589544	0.20578985	0.05778259	-0.68441863	0.17507918	-0.65994495	-0.58059802	-0.57751042	0.09783558	-0.85850079	-0.13857687	-0.04824705	-0.29000122	0.79663181	0.15025918	-0.60434160	0.33727438	0.49955425	-0.62332201	-0.31949918	-0.31875721	-0.86497082	-0.16881651	0.03720939
2792	27.91000000	0.93094774	0.20047661	0.05662358	-0.67999420	0.17436521	-0.66234378	-0.57593910	-0.58434641	0.09786978	-0.85280486	-0.14916806	-0.05486399	-0.26715442	0.80760004	0.14600732	-0.61309382	0.32523188	0.49649255	-0.62339106	-0.31942315	-0.32568963	-0.86229529	-0.15709671	0.07817353
2793	27.92000000	0.93481213	0.20023981	0.05314635	-0.68303118	0.17159901	-0.66571048	-0.56883733	-0.58675670	0.09979922	-0.85208431	-0.16742929	-0.05641246	-0.25369043	0.81304934	0.13606155	-0.62524061	0.31618092	0.49061051	-0.61635121	-0.32637997	-0.33005543	-0.85560681	-0.14962699	0.11705766
2794	27.93000000	0.93863717	0.20381672	0.05851156	-0.68057470	0.17339761	-0.66409921	-0.56828999	-0.59009808	0.10379580	-0.84282646	-0.18457234	-0.05667433	-0.23499834	0.82153268	0.12616682	-0.63544022	0.30972475	0.48986716	-0.61928681	-0.33129872	-0.33631857	-0.84908075	-0.14015958	0.13805869
2795	27.94000000	0.93427076	0.20055789	0.05879045	-0.67778245	0.17082718	-0.66857982	-0.56849086	-0.59335239	0.10724258	-0.84536173	-0.19395701	-0.05684232	-0.21447798	0.82767548	0.11712100	-0.63954580	0.30423997	0.48415077	-0.62162491	-0.33181643	-0.33797440	-0.84833850	-0.13124839	0.16015060
2796	27.95000000	0.93258546	0.19642273	0.06124806	-0.68313154	0.17197580	-0.66927434	-0.56162195	-0.59499715	0.10987696	-0.84541247	-0.20367755	-0.06136967	-0.20119693	0.83026661	0.10121731	-0.64955246	0.29841127	0.47758511	-0.61856935	-0.33728294	-0.34560313	-0.84518938	-0.11374237	0.16901825
2797	27.96000000	0.93560945	0.19387379	0.06321166	-0.68631414	0.16483294	-0.66119432	-0.55594259	-0.59458674	0.11095938	-0.84179052	-0.21212835	-0.07013095	-0.18551251	0.83444088	0.08105865	-0.65101367	0.28901536	0.47475458	-0.62046346	-0.34388691	-0.35674391	-0.84367485	-0.09083696	0.17097283
2798	27.97000000	0.93674289	0.18760626	0.06243853	-0.68302451	0.16346714	-0.66312646	-0.56157510	-0.59902291	0.11000294	-0.83747582	-0.22395711	-0.07099665	-0.16473828	0.83636787	0.06414667	-0.65642638	0.27475249	0.47344439	-0.62082326	-0.34793756	-0.36251152	-0.84907424	-0.06470204	0.16518826
2799	27.98000000	0.93762451	0.19209555	0.06353019	-0.68159180	0.15945817	-0.66697158	-0.56044995	-0.60548578	0.11010446	-0.83180407	-0.23463457	-0.07228791	-0.15726730	0.84396064	0.03908621	-0.66720434	0.26552356	0.46588918	-0.62198226	-0.35142708	-0.37060270	-0.85841047	-0.03489420	0.15051674
2800	27.99000000	0.93822614	0.19155116	0.06100873	-0.68269938	0.15087538	-0.66752393	-0.55532940	-0.61003596	0.11445211	-0.83204105	-0.24400223	-0.07190272	-0.15976601	0.84266224	-0.00336616	-0.67530451	0.26405509	0.45789278	-0.62363650	-0.35636067	-0.37750426	-0.86139591	-0.00606379	0.13132194
2801	28	0.93639103	0.18987021	0.05776754	-0.68301253	0.14884885	-0.66399511	-0.55281334	-0.60836051	0.11370832	-0.82485732	-0.25700672	-0.07625915	-0.16237552	0.83686147	-0.03261643	-0.67870268	0.25340607	0.45775665	-0.63200039	-0.35842705	-0.38355656	-0.85817182	0.01211646	0.11593792
2802	28.01000000	0.93738019	0.18681319	0.06077162	-0.68169700	0.14146337	-0.66862032	-0.55290390	-0.61099259	0.11755606	-0.82179999	-0.26343329	-0.08135953	-0.16637869	0.83863175	-0.05952271	-0.68438006	0.24691630	0.44998869	-0.63739661	-0.36418143	-0.38805318	-0.85892559	0.03347740	0.09287927
2803	28.02000000	0.94044355	0.18730944	0.06614746	-0.68423015	0.14028972	-0.67048232	-0.54822996	-0.61376417	0.11060709	-0.82846024	-0.27179999	-0.08325637	-0.17684201	0.83269103	-0.08249326	-0.69262520	0.24186577	0.44564782	-0.64096981	-0.36917315	-0.39665297	-0.85703042	0.04911077	0.06579125
2804	28.03000000	0.93948658	0.18748505	0.06424599	-0.68677647	0.13333991	-0.67365141	-0.55006611	-0.61803737	0.10683351	-0.81587829	-0.28376449	-0.08919863	-0.20203699	0.82829875	-0.09514639	-0.69512410	0.23577566	0.43573560	-0.64981988	-0.37496997	-0.39761651	-0.86016913	0.05052091	0.04531548
2805	28.04000000	0.93703469	0.18614574	0.06675549	-0.68555152	0.12709321	-0.67602172	-0.55289359	-0.61738610	0.11153803	-0.81507200	-0.29083367	-0.09390829	-0.21555885	0.82127639	-0.10073944	-0.70237562	0.23185682	0.43624134	-0.65261697	-0.38183363	-0.40384306	-0.86049451	0.05001510	0.02128343
2806	28.05000000	0.93953849	0.18600183	0.06583659	-0.68310896	0.12539124	-0.67356063	-0.54481806	-0.61865521	0.10944766	-0.80903534	-0.29920644	-0.10340606	-0.23324616	0.81913009	-0.09133356	-0.70882916	0.23265263	0.43576174	-0.65982767	-0.38612528	-0.40861446	-0.85373884	0.04490866	0.00656462
2807	28.06000000	0.93800179	0.18600094	0.06795567	-0.68572159	0.11955413	-0.67825560	-0.54291561	-0.62339772	0.10863803	-0.80230724	-0.30396426	-0.11534242	-0.25228786	0.81450686	-0.07910890	-0.71496202	0.22949415	0.42921115	-0.67192117	-0.38818291	-0.41323212	-0.85352232	0.03266342	-0.01325857
2808	28.07000000	0.93726030	0.18183983	0.07120417	-0.68297747	0.11483472	-0.67511202	-0.53844956	-0.62346634	0.10659739	-0.79718364	-0.31349777	-0.12131499	-0.26736293	0.80836257	-0.06504286	-0.71730089	0.21969603	0.42216818	-0.67388972	-0.39127736	-0.41720725	-0.85585125	0.02208055	-0.03183063
2809	28.08000000	0.93516958	0.18503633	0.07115662	-0.68021695	0.11240754	-0.67770969	-0.53893480	-0.63053636	0.10492583	-0.79550035	-0.32449633	-0.12979025	-0.29239145	0.79917526	-0.04820213	-0.72180134	0.22163655	0.41855218	-0.68083930	-0.39811584	-0.42020459	-0.85006903	0.00636038	-0.05298051
2810	28.09000000	0.93305794	0.18611560	0.07425630	-0.68487348	0.10777073	-0.68499468	-0.53805626	-0.63039658	0.10615691	-0.79168701	-0.33167994	-0.13146030	-0.31915885	0.78948351	-0.02915705	-0.72579035	0.21911817	0.40542556	-0.69122792	-0.40529550	-0.41923901	-0.84609382	-0.00468127	-0.07413876
